<?xml version="1.0" encoding="utf-8"?>
<!-- Generator: Adobe Illustrator 15.0.0, SVG Export Plug-In . SVG Version: 6.00 Build 0)  -->
<!DOCTYPE svg PUBLIC "-//W3C//DTD SVG 1.1//EN" "http://www.w3.org/Graphics/SVG/1.1/DTD/svg11.dtd">
<svg version="1.1" id="Calque_1" xmlns="http://www.w3.org/2000/svg" xmlns:xlink="http://www.w3.org/1999/xlink" x="0px" y="0px"
	 width="128px" height="128px" viewBox="0 0 128 128" enable-background="new 0 0 128 128" xml:space="preserve">
<path id="path48" inkscape:connector-curvature="0" fill="#FFFFFF" d="M116.785,4.666H11.216c-3.618,0-6.549,2.933-6.549,6.55
	v105.569c0,3.616,2.932,6.549,6.549,6.549h56.835V77.38H52.585V59.47h15.465V46.263c0-15.327,9.361-23.673,23.033-23.673
	c6.551,0,12.18,0.487,13.82,0.705v16.018l-9.484,0.005c-7.436,0-8.875,3.533-8.875,8.719V59.47h17.734l-2.309,17.91H86.545v45.954
	h30.24c3.615,0,6.549-2.933,6.549-6.55V11.216C123.334,7.599,120.4,4.666,116.785,4.666"/>
</svg>
