<?xml version="1.0" encoding="utf-8"?>
<!-- Generator: Adobe Illustrator 15.0.0, SVG Export Plug-In . SVG Version: 6.00 Build 0)  -->
<!DOCTYPE svg PUBLIC "-//W3C//DTD SVG 1.1//EN" "http://www.w3.org/Graphics/SVG/1.1/DTD/svg11.dtd">
<svg version="1.1" id="Calque_1" xmlns="http://www.w3.org/2000/svg" xmlns:xlink="http://www.w3.org/1999/xlink" x="0px" y="0px"
	 width="128px" height="128px" viewBox="0 0 128 128" enable-background="new 0 0 128 128" xml:space="preserve">
<g>
	<path fill="#0F3A49" d="M67.896,10.023h-7.793L0.374,113.479l3.897,6.75h119.458l3.897-6.75L67.896,10.023z M12.065,111.229
		L64,21.273l51.936,89.956H12.065z"/>
	<path fill="#0F3A49" d="M64,60.291c-12.922-0.001-23.396,8.923-23.396,19.93c0,6.879,1.091,12.941,7.314,16.523l3,6.966l5.248,1
		l-1-5.711c0.664,0.202,1.34,0.381,2.03,0.53l1,5.181l5.248,1v-5.573c0.185,0.004,0.369,0.012,0.556,0.012
		c0.495,0,0.986-0.018,1.475-0.043v5.604l5.248-1l1-5.401c0.69-0.176,1.367-0.379,2.029-0.606l-1,6.009l5.248-1l3-7.521
		c5.704-3.635,6.396-9.435,6.396-15.969C87.396,69.215,76.92,60.291,64,60.291z M49.998,93.641c-3.012,0,0-6.724,0-6.724
		S53.011,93.641,49.998,93.641z M54.454,87.352c-3.783,0-6.851-3.066-6.851-6.851s3.067-6.853,6.851-6.853
		c3.784,0,6.852,3.067,6.852,6.853C61.306,84.284,58.238,87.352,54.454,87.352z M73.545,87.352c-3.783,0-6.852-3.067-6.852-6.851
		c0-3.784,3.068-6.853,6.852-6.853s6.852,3.067,6.852,6.853C80.396,84.283,77.329,87.352,73.545,87.352z"/>
</g>
</svg>
