<?xml version="1.0" encoding="utf-8"?>
<!-- Generator: Adobe Illustrator 15.0.0, SVG Export Plug-In . SVG Version: 6.00 Build 0)  -->
<!DOCTYPE svg PUBLIC "-//W3C//DTD SVG 1.1//EN" "http://www.w3.org/Graphics/SVG/1.1/DTD/svg11.dtd">
<svg version="1.1" id="Calque_1" xmlns="http://www.w3.org/2000/svg" xmlns:xlink="http://www.w3.org/1999/xlink" x="0px" y="0px"
	 width="128px" height="128px" viewBox="0 0 128 128" enable-background="new 0 0 128 128" xml:space="preserve">
<g>
	<path fill="#815D25" d="M67.897,10.023h-7.794L0.374,113.478l3.897,6.75h119.458l3.897-6.75L67.897,10.023z M12.065,111.228
		L64,21.273l51.935,89.955H12.065z"/>
	<path fill="#815D25" d="M40.604,80.22c0,6.879,1.091,12.942,7.314,16.524l3,6.966l5.248,1l-1-5.711
		c0.664,0.202,1.34,0.381,2.03,0.53l1,5.181l5.248,1v-5.573c0.185,0.003,0.369,0.012,0.556,0.012c0.495,0,0.986-0.018,1.474-0.044
		v5.605l5.248-1l1-5.401c0.691-0.176,1.368-0.38,2.03-0.607l-1,6.009l5.248-1l3-7.522c5.704-3.634,6.396-9.434,6.396-15.968
		c0-11.006-10.476-19.93-23.396-19.93C51.078,60.29,40.604,69.214,40.604,80.22z M54.454,87.352c-3.783,0-6.851-3.067-6.851-6.851
		c0-3.784,3.067-6.852,6.851-6.852c3.784,0,6.852,3.067,6.852,6.852C61.306,84.284,58.238,87.352,54.454,87.352z M73.545,73.649
		c3.783,0,6.852,3.067,6.852,6.852c0,3.782-3.068,6.851-6.852,6.851s-6.852-3.068-6.852-6.851
		C66.693,76.717,69.762,73.649,73.545,73.649z"/>
</g>
</svg>
